<?xml version="1.0" encoding="iso-8859-1"?>
<!-- Generator: Adobe Illustrator 19.0.0, SVG Export Plug-In . SVG Version: 6.00 Build 0)  -->
<svg version="1.1" id="Layer_1" xmlns="http://www.w3.org/2000/svg" xmlns:xlink="http://www.w3.org/1999/xlink" x="0px" y="0px"
	 viewBox="0 0 481.888 481.888" style="enable-background:new 0 0 481.888 481.888;" xml:space="preserve">
<g>
	<g>
		<path d="M300.613,437.637l-81.565-191.941c7.702-6.036,12.75-15.313,12.75-25.83c0-18.169-14.779-32.949-32.945-32.949
			c-18.169,0-32.949,14.779-32.949,32.949c0,10.518,5.048,19.796,12.751,25.83L97.09,437.637c-1.84,4.311,0.175,9.293,4.493,11.125
			c4.268,1.839,9.291-0.175,11.124-4.493l77.658-182.737v165.09c0,4.692,3.796,8.487,8.487,8.487c4.691,0,8.489-3.796,8.489-8.487
			v-165.09l77.657,182.737c1.367,3.232,4.509,5.17,7.808,5.17c1.111,0,2.238-0.215,3.315-0.678
			C300.439,446.93,302.453,441.948,300.613,437.637z"/>
	</g>
</g>
<g>
	<g>
		<path d="M231.615,94.31l-18.405,4.535c-3.991,0.98-6.475,5.045-5.497,9.11l1.355,5.496l-68.822,17.019l16.422,66.495
			c8.146-14.944,23.999-25.107,42.183-25.107c26.47,0,48.004,21.536,48.004,48.008c0,4.198-0.701,8.27-1.759,12.226
			c0.339-0.036,0.678-0.042,1.016-0.127l18.385-4.527L231.615,94.31z"/>
	</g>
</g>
<g>
	<g>
		<path d="M481.634,176.624L447.45,38.158c-0.979-4.064-5.045-6.474-9.111-5.496l-47.586,11.747
			c-4.066,0.98-6.551,5.119-5.572,9.111l0.678,2.711L246.236,90.705l32.883,133.125l139.644-34.482l0.678,2.634
			c0.828,3.465,3.915,5.725,7.304,5.725c0.602,0,1.205-0.078,1.807-0.226l47.586-11.747c1.958-0.452,3.614-1.732,4.668-3.388
			C481.86,180.616,482.161,178.583,481.634,176.624z"/>
	</g>
</g>
<g>
	<g>
		<path d="M125.627,134.082l-16.474,4.066c-1.882,0.453-3.614,1.656-4.593,3.39c-1.054,1.732-1.355,3.765-0.904,5.721l3.238,13.099
			l-69.121,17.094c-1.732-2.785-4.969-4.215-8.282-3.387L5.7,179.862c-1.882,0.527-3.614,1.732-4.593,3.463
			c-1.054,1.732-1.355,3.765-0.904,5.723l15.435,62.344c0.828,3.388,3.915,5.722,7.304,5.722c0.602,0,1.205-0.075,1.807-0.226
			l23.718-5.874c1.958-0.45,3.614-1.731,4.668-3.463c0.602-1.053,0.979-2.184,0.979-3.388l69.269-17.096l3.239,13.105
			c0.828,3.388,3.915,5.722,7.304,5.722c0.602,0,1.205-0.075,1.807-0.226l16.452-4.061L125.627,134.082z"/>
	</g>
</g>
<g>
</g>
<g>
</g>
<g>
</g>
<g>
</g>
<g>
</g>
<g>
</g>
<g>
</g>
<g>
</g>
<g>
</g>
<g>
</g>
<g>
</g>
<g>
</g>
<g>
</g>
<g>
</g>
<g>
</g>
</svg>
